This comic excursion from Louis Malle is set in May 1968, concurrent with a series of Parisian student uprisings. After the death of family matriarch Mme. Vieuzac (Paulette Dubost), the survivors converge on the French countryside for her funeral; they include her two sons, Milou (Michel Piccoli) and Georges (Michel Duchaussoy); Camille (Miou-Miou), Milou's daughter; Camille's husband and children; and granddaughter Claire (Dominique Blanc), a lesbian. With the latest news of rebellion from Paris as their soundtrack, the family members argue over property, revive long-simmering arguments, and watch in dismay as an unlikely love affair begins. When the student uprising threatens to spill over into their community, the family heads for the hills, where the great outdoors only intensifies their reunion. 

General
Complete name                    : Milou En Mai (Louis Malle, 1989).avi
Format                           : AVI
Format/Info                      : Audio Video Interleave
File size                        : 837 MiB
Duration                         : 1h 42mn
Overall bit rate                 : 1 141 Kbps

Video
ID                               : 0
Format                           : MPEG-4 Visual
Format settings, BVOP            : Yes
Format settings, QPel            : No
Format settings, GMC             : No warppoints
Format settings, Matrix          : Default (H.263)
Muxing mode                      : Packed bitstream
Codec ID                         : DX50
Codec ID/Hint                    : DivX 5
Duration                         : 1h 42mn
Bit rate                         : 995 Kbps
Width                            : 640 pixels
Height                           : 384 pixels
Display aspect ratio             : 1.667
Frame rate                       : 25.000 fps
Color space                      : YUV
Chroma subsampling               : 4:2:0
Bit depth                        : 8 bits
Scan type                        : Progressive
Bits/(Pixel*Frame)               : 0.162
Stream size                      : 730 MiB (87%)
Title                            : Video
Writing library                  : DivX 5.2.1 Alpha (UTC 2004-09-08)

Audio
ID                               : 1
Format                           : MPEG Audio
Format version                   : Version 1
Format profile                   : Layer 3
Mode                             : Joint stereo
Mode extension                   : MS Stereo
Codec ID                         : 55
Codec ID/Hint                    : MP3
Duration                         : 1h 42mn
Bit rate mode                    : Variable
Bit rate                         : 128 Kbps
Channel(s)                       : 2 channels
Sampling rate                    : 44.1 KHz
Stream size                      : 98.0 MiB (12%)
Alignment                        : Aligned on interleaves
Interleave, duration             : 26 ms (0.65 video frame)
Interleave, preload duration     : 312 ms
Title                            : Audio

 
http://www.imdb.com/title/tt0097884/

French audio, English and Spanish subtitles

